<svg xmlns="http://www.w3.org/2000/svg" version="1.1" xmlns:xlink="http://www.w3.org/1999/xlink" width="500" height="167" viewBox="100 0 500 167"><svg xml:space="preserve" width="500" height="167" data-version="2" data-id="lg_9pyuWY4JBzFWiumyik" viewBox="0 0 571 167" x="0" y="0"><rect width="100%" height="100%" fill="transparent"></rect><path fill="#00ffef" d="M563.345 44c-.518 2.157-2.583 2.77-3.978 4.06-.328.304-.335 1.005-.374 1.532-.01.14.383.382.629.459 1.325.412 2.723.656 3.972 1.227.672.306 1.184 1.104 1.57 1.79.091.162-.543.927-.98 1.154-3.226 1.68-6.22 3.69-8.941 6.1-.4.353-.761.864-.898 1.367-.132.482-.103 1.142.141 1.554.25.42.875.928 1.287.889 1.354-.13 2.695-.454 4.024-.77 1.36-.323 2.07-.203 2.03.485-.03.522-.157 1.096-.426 1.533-.375.612-1.382 1.041-.23 1.836.841.58.886 1.3.118 1.94-1.495 1.248-3 2.445-4.89 3.15-1.547.576-2.993 1.463-4.404 2.343-.33.205-.542.985-.435 1.407.11.438.605.915 1.048 1.11 2.185.966 4.396.039 6.6 0 .23-.005.671.271.661.387-.038.453-.1 1.185-.365 1.293-2.317.95-4.7 1.737-7.025 2.67-2.58 1.036-5.199 2.018-7.288 3.975-.524.49-.47 1.7.23 2.176.452.307 1.008.462 1.472.755 1.444.908 1.647 1.255.573 2.504-1.3 1.512-1.367 2.879-.42 4.516 1.251 2.165 1.228 2.358-.031 3.176-.465.302-.991.507-1.483.77-.977.522-1.92 1.068-2.05 2.346-.09.878 1.394 1.261 3.632.842 1.917-.358 3.802-.913 5.73-1.18 1.355-.19 2.756-.042 4.136-.044l-.228-.21c-.585.543-1.084 1.257-1.77 1.6-2.693 1.344-5.356 2.572-7.715 4.63-2.011 1.756-4.82 2.596-7.27 3.852-1.463.75-2.954 1.462-4.343 2.332-.296.185-.39 1.047-.24 1.482.14.409.833 1.016 1.095.934 2.316-.718 4.226.312 6.178 1.24l-.143.242c-.879 1.562-2.488 2.105-3.95 2.868-1.457.76-2.934 1.504-4.295 2.413-.693.462-.773 1.217-.451 2.17.582 1.723.365 2.17-.645 2.69-1.228.631-2.507 1.168-3.707 1.848-1.184.671-2.458 1.305-3.407 2.244-2.442 2.417-5.382 3.836-8.61 4.764-5.838 1.678-11.687 3.32-17.529 4.99-.527.151-1.027.393-1.628.627-.196.736-.405 1.526-.649 2.29-2.343-1.236-4.861-1.301-7.38-1.36-3.066-.072-6.131-.147-9.012-.216-.505-.662-.945-1.043-1.134-1.523-.453-1.153-1.279-1.82-2.441-2.023-1.166-.204-2.512.801-3.187 2.242-1.07 2.281-.155 3.993 2.237 4.046 1.951.043 3.911.033 5.858-.095 5.01-.328 10.014-.735 15.02-1.11 6.51-1.584 12.939-3.446 19.325-5.474 1.553-.493 3.284-.473 4.94-.545.267-.012.625.704.824 1.136.077.168-.134.51-.279.727-.15.227-.345.475-.58.587-11.576 5.451-23.83 8.054-36.559 8.55-1.36.053-2.753-.339-4.108-.628-2.733-.58-5.438-1.297-8.179-1.836-1.925-.379-3.723 1.374-3.698 3.513.014 1.105.17 2.208.228 2.903-1.735 2.666-3.27 4.986-4.762 7.333-.642 1.011-1.554 1.57-2.674 1.848-1.624.402-3.24.855-4.882 1.163-11.966 2.248-23.989 1.876-36.007.592-9.744-1.04-19.506-1.961-29.136-3.907-2.178-.44-4.507-.121-6.687-.553-5.478-1.085-10.937-2.207-16.555-2.188-5.942-1.89-12.122-1.971-18.253-2.566-5.261-.51-10.46-1.661-15.687-2.52-1.655-.271-3.307-.642-4.975-.747-8.387-.532-16.666-1.88-24.98-3.023-6.65-.913-13.386-1.21-20.086-1.745-1.109-.089-2.28-.209-3.341.037-6.945 1.603-13.975.934-20.912.425-8.68-.637-17.352-.64-26.031-.744a1105.027 1105.027 0 0 0-18.492-.085c-10.687.05-21.195-1.465-31.71-3.2-8.284-1.368-16.655-2.215-25-3.2-2.512-.296-4.954-.656-7.366-1.522-2.893-1.04-5.932-1.664-8.87-2.588-2.401-.754-4.806-1.551-7.102-2.571-2.553-1.134-4.877-2.863-7.499-3.741-2.654-.89-5.349-1.588-7.759-3.066-1.479-.908-3.12-1.133-4.81-1.305-3.605-.367-7.2-.829-11.153-1.293l1.853-1.986c-4.182-.856-8.255-1.525-12.115-3.247-2.18-.972-4.923-.744-7.423-.913-2.27-.152-4.382-.398-6.155-2.145-.711-.701-1.99-.992-3.055-1.134-2.766-.37-5.558-.551-8.36-.81 1.9-1.214 4.405.408 6.266-1.122.214-.176.576-.403.563-.584-.037-.503-.114-1.085-.402-1.464-.316-.416-.85-.715-1.349-.934-2.332-1.028-4.783-1.596-7.336-1.536-2.247.055-4.464.024-6.606-.758.073-.282.104-.615.17-.621 3.026-.325 6.055-.62 9.311-.942.209-.723.36-1.487.647-2.196 1.305-3.226-.206-5.423-2.703-7.14-1.599-1.1-3.258-2.107-5.301-2.397-1.635-.231-3.26-.75-4.796-1.374-.683-.277-1.514-1.061-1.624-1.724-.47-2.811-2.364-3.397-4.78-3.716a293.348 293.348 0 0 1-14.89-2.338c-.977-.18-1.866-1.131-2.657-1.875-.306-.287-.28-.982-.286-1.493-.002-.129.444-.34.706-.382 1.374-.218 2.75-.493 4.135-.563 2.733-.137 5.472-.153 8.27-.746-1.563-.374-3.172-.624-4.677-1.166-1.016-.365-1.92-1.092-2.812-1.742-.962-.7-.597-2.146.487-2.72.853-.45 2.34.35 2.646-1.423l-7.651-.664c1.356-1.965 3.226-.72 4.615-1.42 1.244-.63 2.579-1.078 3.84-1.677.751-.357 1.453-.827 2.143-1.296.211-.143.461-.485.424-.685-.09-.478-.228-1.211-.547-1.338-1.806-.718-3.676-1.275-5.51-1.928-.202-.073-.488-.497-.434-.603.208-.402.496-1.007.83-1.061 3.295-.535 6.738-.186 9.855-1.764.604-.306.952-1.623.4-2.137-.805-.748-1.601-1.646-2.578-2.029-1.275-.5-2.713-.675-4.098-.79-8.089-.664-16.182-1.27-24.248-1.895-.13-.598-.391-1.124-.318-1.598.183-1.195.047-2.149-1.106-2.826a174.892 174.892 0 0 1-5.691-3.522c-.15-.097-.177-.529-.116-.77.05-.202.28-.435.484-.512 1.93-.73 3.989-.616 5.765.102 5.302 2.141 10.925 2.2 16.442 3.013 6.38.941 12.768 1.521 19.223 1.408 1.664-.03 3.375.11 4.993.484 3.369.776 6.641 1.2 9.716-.9 2.486-.31 4.965-.799 7.46-.9 7.042-.282 13.783-2.16 20.6-3.646.225-.05.46-.31.58-.533.274-.506-.008-.93-.761-.961-1.673-.07-3.349-.04-5.023-.072-1.674-.033-3.351-.054-5.022-.154-1.788-.106-2.2-.728-1.766-2.765.117-.542.392-1.07.406-1.61.021-.842-.153-1.638-1.1-2.034-2.369-.99-4.797-1.294-7.379-1.19-6.996.277-14 .376-21 .53-1.676.036-3.355.005-5.291.005.44-.516.635-.98.927-1.052 2.438-.598 4.88-1.515 7.347-1.6 7.284-.251 14.381-2.033 21.657-2.337 3.634-.152 7.254-.84 10.022-3.625 3.865-1.081 6.715-3.807 9.828-6.1.123-.089.072-.515-.008-.747-.074-.217-.289-.545-.45-.55-5.286-.153-10.534-.82-15.862.266-3.514.716-7.23.444-10.893.328 3.35-.586 6.677-1.051 9.969-1.942 3.761-1.018 7.733-1.244 11.6-1.89 3.59-.598 7.166-1.276 10.74-1.956 3.573-.68 7.143-1.373 10.7-2.128 1.915-.408 3.805-.944 5.697-1.453 1.41-.38 2.507-1.225 3.287-2.447 1.314-2.06 2.597-4.14 3.852-6.145 2.364.415 3.574 2.019 4.632 3.643 1.218 1.87 2.194 3.901 3.254 5.873 1.063 1.979 2.84 2.62 4.918 2.534 1.102-.044 2.283-.14 3.274-.568 8.179-3.526 16.85-3.896 25.548-4.125a584.21 584.21 0 0 1 35.286.134c4.207.143 8.374.687 12.554.88 9.52.442 18.977 1.52 28.465 2.268 6.697.528 13.407.911 20.111 1.36 8.943.6 17.9 1.026 26.823 1.844 15.048 1.379 30.184 1.88 45.108 4.573 4.117.742 8.342.88 12.515 1.313 13.363 1.388 26.706 2.943 40.135 3.7 16.782.948 33.562 1.907 50.367 2.245 3.437.07 6.704.816 9.893 1.714 7.518 2.116 15.164 4.046 21.678 8.706 1.397.999 2.914 1.606 4.643 1.756 1.67.144 3.34.346 4.986.653 1.967.366 3.856.296 5.808-.212 3.246-.844 6.512-1.704 9.823-2.184 4.428-.642 8.687-1.86 12.952-3.113l-.028.05c1.778 1.419 3.73 2.423 6.051 2.561 1.946.116 3.91.115 5.833.392 4.224.61 8.31.139 12.372-1.072 1.312-.392 2.721-.468 4.091-.647.24-.03.615.065.74.238.374.51.197.99-.281 1.46-.556.549-1.043 1.169-1.607 1.811 1.985 1.322 3.83.094 5.66.123 1.586.026 3.18-.803 4.774.033-1.038 1.532-2.717 1.812-4.301 2.26-1.35.38-2.648.84-3.588 1.964-.45.538-.447 1.03.03 1.455 1.342 1.202 3.006 1.519 4.663 1.252 3.02-.486 5.997-1.23 9.004-1.809 2.717-.523 5.417-1.383 8.237-.651zm-77.81 96.785c.478.36.752.278.724-.237-.004-.078-.34-.184-.521-.18-.071.002-.136.27-.203.417"></path><path fill="#00ffef" d="M511.87 34.774h3.607l-.006.21-3.626-.161zM7.79 51.73c-.463.05-.928.143-1.39.127-.195-.006-.384-.243-.575-.376.475-.046.95-.133 1.424-.12.184.006.36.24.541.369m469.862 105.774h.005a68.444 68.444 0 0 0-.005 0m85.87-113.31.76-.88c-.108.13-.195.29-.328.382-.182.127-.399.204-.604.304a6.24 6.24 0 0 0 .171.194m-20.832 73.018c.076.652.422.967 1.015.839.101-.022.246-.485.174-.564-.43-.468-.901-.443-1.334-.012 0-.02.145-.263.145-.263m14.293-15.858.08-.417-.31.203z"></path><path fill="#010c80" d="M127.88 134.84q-5.21 0-7.5-3.84t-2.29-10.6V99.81q-2.11 2.17-4.31 3.1-2.2.93-4.93.93-.81 0-1.3-.74-.5-.74-.5-1.92 0-1.24.59-1.95.59-.72 1.58-.72 2.17 0 4.28-1.45 2.11-1.46 4.59-4.69V56.48q0-3.35.52-6.11.53-2.76 1.89-4.74 1.12-1.68 2.89-2.73 1.76-1.06 4.43-1.06 4.84 0 7.44 4.34 2.6 4.34 2.6 12.28 0 18.91-11.59 32.86 4.09 1.36 7.01 5.83 2.1 1.36 4.34 1.36.8 0 1.3.75.49.74.49 1.98 0 1.18-.58 1.89-.59.71-1.65.71h-.8q.99 3.1 1.52 6.79.52 3.69.52 7.78 0 8.13-2.69 12.28-2.7 4.15-7.85 4.15m-4.28-79.67v30.94q4.22-5.76 6.48-12.92 2.27-7.17 2.27-14.79 0-5.58-1.15-8.5-1.15-2.91-3.38-2.91-4.22 0-4.22 8.18m0 42.54v22.69q0 4.65 1.06 7 1.05 2.36 3.53 2.36 2.3 0 3.54-3.01 1.24-3 1.24-8.77 0-9.8-2.67-15.75-2.05-.87-3.81-2.04-1.77-1.18-2.89-2.48"></path><rect width="32.36" height="93" x="-16.18" y="-46.5" fill="none" rx="0" ry="0" transform="translate(123.73 88.84)"></rect><path fill="#010c80" d="M137.18 103.84q-.8 0-1.3-.74t-.5-1.92q0-2.67 2.24-2.67 2.72 0 4.86-2.26t3.41-6.17q1.27-3.91 1.27-8.68 0-1.12-.12-2.05-.12-.93-.31-1.55-.56-.55-1.21-1.79-.65-1.24-1.11-2.64-.47-1.39-.47-2.26.74-1.18 2.39-1.83 1.64-.65 3.62-.34 1.18 2.17 1.93 5.45 1.86-.06 5.02-.8 1.98-.44 3.19-.59 1.21-.16 2.08-.16 3.35 0 5.27 2.52 1.92 2.51 1.92 6.78v9.99q0 3.41.9 4.89.9 1.49 2.88 1.49.87 0 1.34.75.46.74.46 1.98 0 .99-.53 1.8-.52.8-1.7.8-8.99 0-8.99-11.03V83.2q0-2.79-.62-3.91-.62-1.11-2.23-1.11-.56 0-1.24.12-.69.12-2.42.5-3.04.62-4.59.74.06.99.06 1.98 0 6.7-1.92 11.72-1.92 5.02-5.42 7.81-3.51 2.79-8.16 2.79"></path><rect width="39.56" height="35.1" x="-19.78" y="-17.55" fill="none" rx="0" ry="0" transform="translate(155.66 86.79)"></rect><path fill="#010c80" d="M172.71 103.84q-.81 0-1.3-.74-.5-.74-.5-1.92 0-2.67 2.23-2.67 1.8 0 3.66-.59t4.34-2.01q-2.42-4.22-2.42-9.92 0-3.85 1.43-6.79 1.42-2.95 3.97-4.65 2.54-1.71 5.76-1.71 2.73 0 4.84 1.28 2.11 1.27 3.28 3.5 1.18 2.23 1.18 5.14 0 3.97-2.32 7.26-2.33 3.28-7.85 7.13 1.99 1.42 5.34 1.42.86 0 1.36.75.5.74.5 1.98 0 1.18-.56 1.86-.56.68-1.61.68-2.98 0-5.58-.99-2.61-.99-4.34-2.73-5.96 3.72-11.41 3.72m11.41-18.35q0 4.9 1.73 7.81 4.03-2.79 5.99-5.45 1.95-2.67 1.95-5.09 0-2.23-1.09-3.5-1.08-1.27-3-1.27-2.42 0-4 2.17t-1.58 5.33"></path><rect width="28.27" height="31" x="-14.13" y="-15.5" fill="none" rx="0" ry="0" transform="translate(185.55 88.84)"></rect><path fill="#010c80" d="M200.11 103.84q-.8 0-1.3-.74t-.5-1.92q0-2.67 2.24-2.67 1.98 0 4.4-2.45 2.42-2.45 5.64-7.9l6.63-11.22q-.12-.87-.12-1.86 0-3.1 1.15-4.59 1.14-1.49 1.89-1.8 1.05-.25 2.26.03 1.21.28 2.2.9.99.62 1.37 1.49-.25 1.11-.93 2.66-.69 1.55-2.17 4.16.43.68 1.11 1.36.68.68 1.68 1.49l4.71 3.84q2.54 2.05 3.81 4.25t1.27 4.93q0 3.29-1.86 5.83.31.68.31 1.61 0 1.18-.59 1.89t-1.64.71q-.99 0-1.92-.12-.93-.12-2.05-.31-1.67.43-3.53.43-2.17 0-4.34-.65t-4.53-2.07q-.12-3.29 2.48-4.84 3.41 2.23 6.45 2.23 2.6 0 4.15-1.39 1.55-1.4 1.55-3.57 0-2.73-2.97-5.08l-4.71-3.72q-1.24-.99-2.24-2.05l-6.2 10.48q-3.41 5.77-6.54 8.22-3.13 2.44-7.16 2.44"></path><rect width="37.14" height="35.33" x="-18.57" y="-17.67" fill="none" rx="0" ry="0" transform="translate(217.38 86.67)"></rect><path fill="#010c80" d="M237.75 103.84q-.81 0-1.31-.74-.49-.74-.49-1.92 0-1.24.59-1.95.59-.72 1.58-.72 2.73 0 5.24-2.45 2.51-2.45 5.61-8.21V54.68q0-6.2 2.63-9.55 2.64-3.35 7.66-3.29 4.59.07 7.16 3.48 2.57 3.41 2.57 8.86 0 4.4-1.61 9.8-1.61 5.39-4.28 10.35.62-.06 1.31-.06 4.65 0 7.41 3.29 2.75 3.28 2.75 8.8v5.33q0 3.6.9 5.21.9 1.61 3.01 1.61.99 0 1.43.78.43.77.43 1.95t-.59 1.89q-.59.71-1.64.71-4.47 0-6.85-2.88-2.39-2.88-2.39-8.15v-6.57q0-3.17-1.39-4.93-1.4-1.77-3.94-1.77-2.48 0-4.47 1.64-1.98 1.65-3.16 4.5-1.18 2.85-1.24 6.57v10.73q-.62.18-1.36.31-.75.12-1.43.12-1.42 0-2.91-.43v-5.09q-2.54 3.29-5.18 4.62-2.63 1.33-6.04 1.33m16.74-49.22v23.93q2.79-4.28 4.8-8.62 2.02-4.34 3.1-8.4 1.09-4.06 1.09-7.41 0-3.47-1.15-5.3-1.15-1.83-3.32-1.83-4.52 0-4.52 7.63"></path><rect width="44.39" height="62.01" x="-22.2" y="-31.01" fill="none" rx="0" ry="0" transform="translate(258.65 73.33)"></rect><path fill="#010c80" d="M315.99 134.84q-5.21 0-7.5-3.84-2.3-3.84-2.3-10.6V99.81q-2.1 2.17-4.3 3.1-2.21.93-4.93.93-.81 0-1.31-.74-.49-.74-.49-1.92 0-1.24.59-1.95.59-.72 1.58-.72 2.17 0 4.28-1.45 2.1-1.46 4.58-4.69V56.48q0-3.35.53-6.11.53-2.76 1.89-4.74 1.12-1.68 2.89-2.73 1.76-1.06 4.43-1.06 4.83 0 7.44 4.34 2.6 4.34 2.6 12.28 0 18.91-11.59 32.86 4.09 1.36 7 5.83 2.11 1.36 4.34 1.36.81 0 1.31.75.49.74.49 1.98 0 1.18-.59 1.89t-1.64.71h-.81q1 3.1 1.52 6.79.53 3.69.53 7.78 0 8.13-2.7 12.28-2.69 4.15-7.84 4.15m-4.28-79.67v30.94q4.22-5.76 6.48-12.92 2.26-7.17 2.26-14.79 0-5.58-1.14-8.5-1.15-2.91-3.38-2.91-4.22 0-4.22 8.18m0 42.54v22.69q0 4.65 1.06 7 1.05 2.36 3.53 2.36 2.29 0 3.53-3.01 1.24-3 1.24-8.77 0-9.8-2.66-15.75-2.05-.87-3.81-2.04-1.77-1.18-2.89-2.48"></path><rect width="32.36" height="93" x="-16.18" y="-46.5" fill="none" rx="0" ry="0" transform="translate(311.84 88.84)"></rect><path fill="#010c80" d="M325.72 98.51q2.05 0 4-1.95 1.96-1.95 3.32-5.24-.25-1.49-.25-3.04 0-4.46 1.92-7.93 1.93-3.48 5.24-5.49 3.32-2.02 7.47-2.02 4.16 0 7.44 2.02 3.29 2.01 5.18 5.49 1.89 3.47 1.89 7.93 0 4.47-1.89 8-1.89 3.53-5.14 5.55-3.26 2.01-7.48 2.01-3.78 0-6.85-1.64t-5.05-4.49q-3.84 6.13-10.23 6.13-.81 0-1.3-.74-.5-.74-.5-1.92 0-2.67 2.23-2.67m21.64 0q3.97 0 6.36-2.79 2.38-2.79 2.38-7.44 0-2.29-.68-4.21-3.72-.13-6.72-1.49-3.01-1.37-4.75-3.72-2.48 1.05-3.9 3.56-1.43 2.51-1.43 5.99 0 4.52 2.39 7.31 2.38 2.79 6.35 2.79"></path><rect width="38.44" height="31" x="-19.22" y="-15.5" fill="none" rx="0" ry="0" transform="translate(343.21 88.84)"></rect><path fill="#010c80" d="M364.85 98.51q2.04 0 4-1.95 1.95-1.95 3.31-5.24-.25-1.49-.25-3.04 0-4.46 1.93-7.93 1.92-3.48 5.24-5.49 3.31-2.02 7.47-2.02 4.15 0 7.44 2.02 3.28 2.01 5.17 5.49 1.89 3.47 1.89 7.93 0 4.47-1.89 8-1.89 3.53-5.14 5.55-3.26 2.01-7.47 2.01-3.79 0-6.85-1.64-3.07-1.64-5.06-4.49-3.84 6.13-10.23 6.13-.8 0-1.3-.74t-.5-1.92q0-2.67 2.24-2.67m21.63 0q3.97 0 6.36-2.79t2.39-7.44q0-2.29-.69-4.21-3.72-.13-6.72-1.49-3.01-1.37-4.75-3.72-2.48 1.05-3.9 3.56-1.43 2.51-1.43 5.99 0 4.52 2.39 7.31t6.35 2.79"></path><rect width="38.44" height="31" x="-19.22" y="-15.5" fill="none" rx="0" ry="0" transform="translate(382.33 88.84)"></rect><path fill="#010c80" d="M403.97 98.51q2.11 0 4.12-2.07 2.02-2.08 3.38-5.62-.06-.86-.06-1.73 0-4.71 1.86-8.37 1.86-3.66 5.05-5.77 3.19-2.11 7.29-2.11 2.17 0 4.27.84 2.11.84 3.54 2.26V50.9q1.18-.44 2.85-.44 1.43 0 2.79.44v41.23q0 3.41.9 4.89.9 1.49 2.88 1.49.87 0 1.34.75.46.74.46 1.98 0 .99-.53 1.8-.52.8-1.7.8-5.89 0-7.94-4.83-1.8 2.29-4.34 3.56t-5.64 1.27q-3.6 0-6.35-1.58-2.76-1.58-4.5-4.37-3.84 5.95-10.11 5.95-.8 0-1.3-.74-.49-.74-.49-1.92 0-2.67 2.23-2.67m13.2-9.42q0 4.4 2.02 6.91 2.01 2.51 5.55 2.51 3.9 0 6.29-2.66 2.39-2.67 2.39-7.01V81.9q-1.24-1.68-3.16-2.7-1.93-1.02-3.97-1.02-2.67 0-4.71 1.42-2.05 1.43-3.23 3.88-1.18 2.45-1.18 5.61"></path><rect width="42.9" height="53.38" x="-21.45" y="-26.69" fill="none" rx="0" ry="0" transform="translate(423.69 77.65)"></rect><path fill="#010c80" d="M442.41 103.84q-.81 0-1.3-.74-.5-.74-.5-1.92 0-2.67 2.23-2.67 1.99 0 4.4-2.45 2.42-2.45 5.65-7.9l6.63-11.22q-.12-.87-.12-1.86 0-3.1 1.14-4.59 1.15-1.49 1.89-1.8 1.06-.25 2.27.03t2.2.9q.99.62 1.36 1.49-.25 1.11-.93 2.66t-2.17 4.16q.44.68 1.12 1.36.68.68 1.67 1.49l4.71 3.84q2.55 2.05 3.82 4.25t1.27 4.93q0 3.29-1.86 5.83.31.68.31 1.61 0 1.18-.59 1.89t-1.64.71q-1 0-1.93-.12-.93-.12-2.04-.31-1.68.43-3.54.43-2.17 0-4.34-.65t-4.52-2.07q-.13-3.29 2.48-4.84 3.41 2.23 6.45 2.23 2.6 0 4.15-1.39 1.55-1.4 1.55-3.57 0-2.73-2.98-5.08l-4.71-3.72q-1.24-.99-2.23-2.05l-6.2 10.48q-3.41 5.77-6.54 8.22-3.13 2.44-7.16 2.44"></path><rect width="37.14" height="35.33" x="-18.57" y="-17.67" fill="none" rx="0" ry="0" transform="translate(459.68 86.67)"></rect></svg></svg>