<svg xmlns="http://www.w3.org/2000/svg" fill="none"  xml:space="preserve" width="270" height="81.378" data-version="2" data-id="lg_9pyuWY4JBzFWiumyik" viewBox="80 20 449.182 81.378">

  <path fill="#00ffef" d="M402.675 27.361h2.832v.162l-2.847-.133zM6.121 40.695c-.369.044-.738.118-1.091.103-.147 0-.295-.192-.457-.295.369-.03.752-.103 1.121-.088.147 0 .28.192.428.295m437.19-5.944.605-.693q-.118.177-.251.295-.221.147-.472.236l.133.147m-16.388 57.437q.103.796.796.664c.074-.015.192-.384.133-.443q-.516-.546-1.047-.015zm11.239-12.479.059-.324-.251.162z"/>
  <path fill="currentColor" d="M100.595 106.067q-4.101 0-5.9-3.024t-1.799-8.334V78.514q-1.667 1.711-3.393 2.434t-3.879.738q-.634 0-1.018-.575t-.398-1.504q0-.974.457-1.534t1.239-.56q1.711 0 3.363-1.136 1.667-1.151 3.614-3.688V44.427q0-2.64.413-4.809t1.49-3.732q.885-1.327 2.272-2.153 1.387-.841 3.481-.841 3.806 0 5.856 3.407t2.05 9.661q0 14.883-9.115 25.857 3.216 1.077 5.516 4.587 1.652 1.077 3.407 1.077.634 0 1.018.59.384.575.384 1.563 0 .929-.457 1.49t-1.298.56h-.634q.782 2.434 1.195 5.34t.413 6.121q0 6.401-2.109 9.661-2.124 3.26-6.18 3.26M97.22 43.393V67.73q3.319-4.528 5.103-10.163t1.785-11.638q0-4.396-.9-6.682t-2.655-2.286q-3.319 0-3.319 6.431m0 33.468v17.848q0 3.658.841 5.502.826 1.859 2.773 1.859 1.814 0 2.788-2.375.974-2.36.974-6.903 0-7.714-2.095-12.39-1.608-.678-2.994-1.608t-2.272-1.947"/>
  <path fill="none" d="M50.843 9.071h25.459v73.16H50.843z"/>
  <path fill="currentColor" d="M107.911 81.686q-.634 0-1.018-.575t-.398-1.504q0-2.095 1.755-2.095 2.139 0 3.82-1.785t2.684-4.853 1.003-6.829q0-.885-.088-1.608t-.251-1.224q-.443-.428-.959-1.401t-.87-2.08q-.369-1.091-.369-1.785.575-.929 1.873-1.446 1.283-.516 2.847-.265.929 1.711 1.519 4.292 1.46-.044 3.953-.634 1.563-.339 2.508-.457t1.637-.133q2.64 0 4.145 1.977t1.504 5.34v7.862q0 2.684.708 3.85t2.272 1.165q.678 0 1.047.59.369.575.369 1.563 0 .782-.413 1.416t-1.342.634q-7.065 0-7.065-8.673v-7.567q0-2.198-.487-3.083-.487-.87-1.755-.87-.443 0-.974.088t-1.903.398q-2.389.487-3.614.575.044.782.044 1.563 0 5.266-1.504 9.219t-4.263 6.151-6.416 2.198"/>
  <path fill="none" d="M64.428 30.798H95.55V58.41H64.428z"/>
  <path fill="currentColor" d="M135.862 81.686q-.634 0-1.018-.575t-.398-1.504q0-2.095 1.755-2.095 1.416 0 2.876-.457t3.407-1.578q-1.903-3.319-1.903-7.803 0-3.024 1.121-5.34t3.127-3.658 4.528-1.342q2.153 0 3.806 1.003t2.581 2.758.929 4.042q0 3.127-1.829 5.708t-6.18 5.605q1.563 1.121 4.204 1.121.678 0 1.077.59.398.575.398 1.563 0 .929-.443 1.46t-1.268.531q-2.345 0-4.396-.782t-3.407-2.153q-4.691 2.921-8.983 2.921m8.983-14.44q0 3.85 1.357 6.151 3.171-2.198 4.705-4.292t1.534-3.997q0-1.755-.856-2.758t-2.36-1.003q-1.903 0-3.142 1.711t-1.239 4.189"/>
  <path fill="none" d="M84.222 33.453h22.243v24.382H84.222z"/>
  <path fill="currentColor" d="M157.427 81.686q-.634 0-1.018-.575t-.398-1.504q0-2.095 1.755-2.095 1.563 0 3.466-1.932t4.44-6.21l5.221-8.82q-.088-.678-.088-1.46 0-2.434.9-3.614t1.49-1.416q.826-.192 1.785.03t1.726.708 1.077 1.165q-.192.87-.738 2.095t-1.711 3.275q.339.531.87 1.077t1.327 1.165l3.702 3.024q1.991 1.608 2.994 3.348t1.003 3.879q0 2.581-1.46 4.587.251.531.251 1.268 0 .929-.457 1.49t-1.283.56q-.782 0-1.504-.088t-1.608-.251q-1.313.339-2.773.339-1.711 0-3.407-.516t-3.569-1.623q-.088-2.581 1.947-3.806 2.684 1.755 5.074 1.755 2.05 0 3.26-1.091 1.224-1.106 1.224-2.803 0-2.153-2.331-3.997l-3.702-2.921q-.974-.782-1.755-1.608l-4.882 8.245q-2.684 4.543-5.148 6.46t-5.635 1.917"/>
  <path fill="none" d="M97.084 30.636h29.22v27.789h-29.22z"/>
  <path fill="currentColor" d="M187.03 81.686q-.634 0-1.033-.575-.384-.575-.384-1.504 0-.974.457-1.534t1.239-.56q2.153 0 4.115-1.932t4.41-6.46V43.013q0-4.882 2.065-7.508 2.08-2.64 6.033-2.581 3.614.059 5.635 2.744t2.021 6.977q0 3.466-1.268 7.714-1.268 4.233-3.363 8.142.487-.044 1.033-.044 3.658 0 5.826 2.581t2.168 6.918v4.189q0 2.832.708 4.101t2.375 1.268q.782 0 1.121.62.339.605.339 1.534t-.457 1.49-1.283.56q-3.51 0-5.384-2.272t-1.873-6.416v-5.162q0-2.493-1.091-3.879-1.106-1.387-3.097-1.387-1.947 0-3.51 1.283-1.563 1.298-2.493 3.54t-.974 5.162v8.437q-.487.147-1.077.251-.59.088-1.121.088-1.121 0-2.286-.339v-3.997q-1.991 2.581-4.071 3.628-2.065 1.047-4.75 1.047m13.142-38.733V61.79q2.198-3.363 3.776-6.785 1.593-3.407 2.434-6.608t.856-5.826q0-2.729-.9-4.174t-2.611-1.446q-3.555 0-3.555 6.003"/>
  <path fill="none" d="M115.448 13.29h34.913v48.778h-34.913z"/>
  <path fill="currentColor" d="M248.582 106.067q-4.101 0-5.9-3.024-1.814-3.024-1.814-8.334V78.514q-1.652 1.711-3.378 2.434-1.74.738-3.879.738-.634 0-1.033-.575-.384-.575-.384-1.504 0-.974.457-1.534t1.239-.56q1.711 0 3.363-1.136 1.652-1.151 3.599-3.688V44.427q0-2.64.413-4.809t1.49-3.732q.885-1.327 2.272-2.153 1.387-.841 3.481-.841 3.806 0 5.856 3.407t2.05 9.661q0 14.883-9.115 25.857 3.216 1.077 5.502 4.587 1.667 1.077 3.407 1.077.634 0 1.033.59.384.575.384 1.563 0 .929-.457 1.49t-1.283.56h-.634q.782 2.434 1.195 5.34t.413 6.121q0 6.401-2.124 9.661-2.109 3.26-6.165 3.26m-3.363-62.673V67.73q3.319-4.528 5.103-10.163t1.785-11.638q0-4.396-.9-6.682t-2.655-2.286q-3.319 0-3.319 6.431m0 33.468v17.848q0 3.658.841 5.502.826 1.859 2.773 1.859 1.799 0 2.773-2.375.974-2.36.974-6.903 0-7.714-2.095-12.39-1.608-.678-2.994-1.608t-2.272-1.947"/>
  <path fill="none" d="M147.515 9.071h25.459v73.16h-25.459z"/>
  <path fill="currentColor" d="M256.237 77.496q1.608 0 3.142-1.534 1.549-1.534 2.611-4.115-.192-1.165-.192-2.389 0-3.51 1.504-6.239 1.519-2.744 4.115-4.322 2.611-1.593 5.871-1.593t5.856 1.593 4.071 4.322 1.49 6.239-1.49 6.298-4.042 4.366q-2.567 1.578-5.885 1.578-2.98 0-5.384-1.283t-3.968-3.525q-3.024 4.823-8.054 4.823-.634 0-1.018-.575t-.398-1.504q0-2.095 1.755-2.095m17.021 0q3.127 0 5-2.198t1.873-5.856q0-1.799-.531-3.319-2.921-.103-5.28-1.165-2.375-1.077-3.732-2.921-1.947.826-3.068 2.803t-1.121 4.705q0 3.555 1.873 5.753t5 2.198"/>
  <path fill="none" d="M161.232 33.453h30.237v24.382h-30.237z"/>
  <path fill="currentColor" d="M287.02 77.496q1.608 0 3.142-1.534t2.611-4.115q-.192-1.165-.192-2.389 0-3.51 1.519-6.239 1.504-2.744 4.115-4.322 2.611-1.593 5.871-1.593t5.856 1.593 4.071 4.322 1.49 6.239-1.49 6.298-4.042 4.366Q307.404 81.7 304.1 81.7q-2.98 0-5.384-1.283-2.419-1.283-3.983-3.525-3.024 4.823-8.054 4.823-.634 0-1.018-.575t-.398-1.504q0-2.095 1.755-2.095m17.021 0q3.127 0 5-2.198t1.873-5.856q0-1.799-.546-3.319-2.921-.103-5.28-1.165-2.375-1.077-3.732-2.921-1.947.826-3.068 2.803t-1.121 4.705q0 3.555 1.873 5.753t5 2.198"/>
  <path fill="none" d="M181.337 33.453h30.237v24.382h-30.237z"/>
  <path fill="currentColor" d="M317.789 77.496q1.667 0 3.245-1.623 1.593-1.637 2.655-4.425-.044-.678-.044-1.357 0-3.702 1.46-6.579t3.968-4.543 5.738-1.667q1.711 0 3.363.664 1.667.664 2.788 1.785V40.046q.929-.339 2.242-.339 1.121 0 2.198.339v32.435q0 2.684.708 3.85t2.272 1.165q.678 0 1.047.59.369.575.369 1.563 0 .782-.413 1.416t-1.342.634q-4.631 0-6.239-3.806-1.416 1.799-3.407 2.803t-4.44 1.003q-2.832 0-5-1.239t-3.54-3.437q-3.024 4.676-7.95 4.676-.634 0-1.018-.575t-.384-1.504q0-2.095 1.755-2.095m10.384-7.404q0 3.466 1.593 5.443 1.578 1.977 4.366 1.977 3.068 0 4.941-2.095t1.873-5.516v-5.457q-.974-1.327-2.493-2.124t-3.127-.796q-2.095 0-3.702 1.121t-2.537 3.053-.929 4.41"/>
  <path fill="none" d="M200.836 18.91h33.748v41.993h-33.748z"/>
  <path fill="currentColor" d="M348.026 81.686q-.634 0-1.018-.575t-.398-1.504q0-2.095 1.755-2.095 1.563 0 3.466-1.932t4.44-6.21l5.221-8.82q-.088-.678-.088-1.46 0-2.434.9-3.614t1.49-1.416q.841-.192 1.785.03t1.726.708 1.077 1.165q-.192.87-.738 2.095t-1.711 3.275q.339.531.885 1.077t1.313 1.165l3.702 3.024q2.006 1.608 3.009 3.348t1.003 3.879q0 2.581-1.46 4.587.251.531.251 1.268 0 .929-.457 1.49t-1.283.56q-.782 0-1.519-.088t-1.608-.251q-1.327.339-2.788.339-1.711 0-3.407-.516t-3.555-1.623q-.103-2.581 1.947-3.806 2.684 1.755 5.074 1.755 2.05 0 3.26-1.091 1.224-1.106 1.224-2.803 0-2.153-2.345-3.997l-3.702-2.921q-.974-.782-1.755-1.608l-4.882 8.245q-2.684 4.543-5.148 6.46t-5.635 1.917"/>
  <path fill="none" d="M221.589 30.636h29.22v27.789h-29.22z"/>
</svg>
