
<svg xmlns="http://www.w3.org/2000/svg" fill="none" xml:space="preserve" width="270" height="81.378" data-version="2" data-id="lg_9pyuWY4JBzFWiumyik" viewBox="0 20 449.182 81.378">
    <path fill="#00ffef" d="M443.164 34.618c-.413 1.696-2.036 2.183-3.127 3.201-.251.236-.265.796-.295 1.21-.015.103.295.295.502.354 1.047.324 2.139.516 3.127.959.531.236.929.87 1.239 1.401.074.133-.428.723-.767.914q-3.82 1.977-7.036 4.794a2.36 2.36 0 0 0-.708 1.077c-.103.384-.088.9.118 1.224.192.324.693.738 1.018.693 1.062-.103 2.124-.354 3.171-.605 1.077-.251 1.623-.162 1.593.384a2.95 2.95 0 0 1-.339 1.21c-.295.487-1.091.826-.177 1.446.664.457.693 1.018.088 1.519a13.3 13.3 0 0 1-3.85 2.478 20.7 20.7 0 0 0-3.466 1.844c-.265.162-.428.782-.339 1.106a1.48 1.48 0 0 0 .826.87c1.726.767 3.452.03 5.192 0 .177 0 .531.207.516.31-.03.354-.074.929-.28 1.018-1.829.752-3.702 1.372-5.531 2.095-2.036.811-4.086 1.593-5.738 3.127-.413.384-.369 1.342.177 1.711.354.236.796.369 1.165.59 1.136.708 1.298.988.457 1.977-1.018 1.195-1.077 2.272-.324 3.555.988 1.696.959 1.859-.03 2.493q-.575.324-1.165.605c-.767.413-1.504.841-1.608 1.844-.074.693 1.091.988 2.861.664 1.504-.28 2.994-.723 4.513-.929 1.062-.147 2.168-.03 3.26-.03l-.177-.162c-.457.428-.856.988-1.387 1.254-2.124 1.062-4.218 2.021-6.062 3.643-1.578 1.387-3.791 2.036-5.723 3.024-1.151.59-2.331 1.151-3.422 1.829-.236.147-.31.826-.192 1.165.103.324.649.796.856.738 1.829-.56 3.319.251 4.853.974l-.118.192c-.693 1.224-1.962 1.652-3.112 2.257s-2.301 1.18-3.378 1.903c-.546.369-.605.959-.354 1.711.457 1.357.28 1.711-.502 2.109-.959.502-1.977.914-2.921 1.46-.929.531-1.932 1.033-2.684 1.77-1.917 1.903-4.233 3.024-6.77 3.747l-13.791 3.924q-.59.207-1.283.487-.221.885-.516 1.799c-1.844-.974-3.82-1.018-5.812-1.077l-7.095-.177c-.398-.516-.738-.826-.885-1.195a2.36 2.36 0 0 0-1.917-1.593c-.914-.162-1.977.634-2.508 1.77-.841 1.799-.118 3.142 1.755 3.186q2.316.059 4.602-.074 5.9-.398 11.815-.87c5.118-1.239 10.177-2.714 15.207-4.307 1.224-.384 2.581-.369 3.879-.428.207-.015.487.56.649.9.059.133-.103.398-.221.575a1.5 1.5 0 0 1-.457.457 73.75 73.75 0 0 1-28.762 6.726c-1.077.044-2.168-.265-3.23-.487-2.153-.457-4.277-1.018-6.431-1.446-1.519-.295-2.935 1.077-2.906 2.758.015.87.133 1.74.177 2.286a664 664 0 0 0-3.747 5.767 3.25 3.25 0 0 1-2.109 1.46c-1.283.31-2.552.678-3.835.914-9.411 1.77-18.865 1.475-28.32.472-7.67-.811-15.34-1.549-22.922-3.068-1.711-.339-3.54-.088-5.266-.443-4.307-.856-8.599-1.74-13.024-1.726-4.676-1.49-9.543-1.549-14.352-2.021-4.145-.398-8.231-1.313-12.346-1.977-1.298-.207-2.596-.502-3.909-.59-6.593-.413-13.113-1.475-19.647-2.375-5.236-.723-10.531-.959-15.797-1.372-.87-.074-1.799-.162-2.625.03-5.457 1.254-10.989.738-16.446.339-6.829-.502-13.644-.502-20.473-.59a870 870 0 0 0-14.543-.074c-8.407.044-16.667-1.151-24.942-2.522-6.519-1.077-13.098-1.74-19.662-2.522a26.6 26.6 0 0 1-5.797-1.195c-2.272-.811-4.661-1.313-6.977-2.036a59 59 0 0 1-5.59-2.021c-2.006-.885-3.835-2.257-5.9-2.95-2.095-.693-4.204-1.254-6.106-2.419a8.85 8.85 0 0 0-3.791-1.033c-2.832-.295-5.664-.649-8.776-1.018l1.46-1.563c-3.289-.678-6.49-1.195-9.529-2.552-1.711-.767-3.879-.59-5.841-.723-1.785-.118-3.452-.31-4.838-1.681-.56-.546-1.563-.782-2.404-.885-2.183-.295-4.366-.428-6.579-.634 1.49-.959 3.466.324 4.926-.885.162-.133.457-.31.443-.457-.03-.398-.088-.856-.31-1.151a2.95 2.95 0 0 0-1.062-.738 13.3 13.3 0 0 0-5.767-1.21 14.8 14.8 0 0 1-5.192-.59c.059-.221.088-.487.133-.487l7.331-.738c.162-.575.28-1.165.516-1.726 1.033-2.537-.162-4.263-2.124-5.62a10.3 10.3 0 0 0-4.174-1.888 14.8 14.8 0 0 1-3.776-1.077c-.531-.221-1.195-.841-1.283-1.357-.369-2.212-1.859-2.67-3.761-2.921a236 236 0 0 1-11.712-1.844c-.767-.147-1.475-.885-2.095-1.475-.236-.221-.221-.767-.221-1.18 0-.103.354-.265.56-.295 1.077-.177 2.168-.384 3.26-.443 2.153-.103 4.307-.118 6.505-.59-1.224-.295-2.493-.487-3.673-.914-.796-.28-1.504-.856-2.212-1.372-.752-.546-.472-1.681.384-2.139.664-.354 1.844.28 2.08-1.121l-6.018-.516c1.062-1.549 2.537-.56 3.628-1.121.974-.502 2.036-.841 3.024-1.313q.885-.443 1.681-1.018c.162-.118.369-.384.339-.546-.074-.384-.177-.959-.428-1.047-1.416-.56-2.891-1.003-4.337-1.519-.162-.059-.384-.398-.339-.472.162-.31.384-.796.649-.841 2.596-.428 5.295-.147 7.759-1.387.472-.236.752-1.283.31-1.681-.634-.59-1.254-1.298-2.036-1.593a11.8 11.8 0 0 0-3.23-.62q-9.543-.767-19.072-1.49c-.103-.472-.31-.885-.251-1.254.147-.944.044-1.696-.87-2.227a133 133 0 0 1-4.484-2.773c-.117-.068-.132-.408-.088-.599a.74.74 0 0 1 .384-.398 6.2 6.2 0 0 1 4.528.074c4.174 1.681 8.599 1.726 12.936 2.375 5.015.738 10.045 1.195 15.119 1.106q1.991-.044 3.924.384c2.655.605 5.221.944 7.641-.708 1.962-.251 3.909-.634 5.871-.708 5.546-.221 10.841-1.696 16.21-2.861.177-.044.369-.251.457-.413.221-.398 0-.738-.605-.752-1.313-.059-2.64-.03-3.953-.059q-1.977-.03-3.953-.118c-1.401-.088-1.726-.575-1.387-2.168.088-.428.31-.841.324-1.268.015-.664-.118-1.283-.87-1.593a13.3 13.3 0 0 0-5.812-.929c-5.502.221-11.018.295-16.52.413-1.313.03-2.64 0-4.159 0 .339-.413.502-.767.723-.826 1.917-.472 3.835-1.195 5.782-1.254 5.723-.192 11.313-1.593 17.036-1.844 2.861-.118 5.708-.664 7.891-2.847 3.038-.856 5.28-2.994 7.729-4.794.103-.074.059-.398 0-.59-.059-.177-.221-.428-.354-.428-4.159-.118-8.29-.649-12.479.207-2.758.56-5.694.354-8.57.251 2.64-.457 5.251-.826 7.847-1.534 2.965-.796 6.077-.974 9.13-1.49q4.218-.723 8.452-1.534c4.233-.811 5.62-1.077 8.422-1.667q2.257-.516 4.484-1.136a4.43 4.43 0 0 0 2.581-1.917q1.563-2.449 3.024-4.838c1.859.324 2.817 1.593 3.643 2.861.959 1.475 1.726 3.068 2.567 4.617s2.227 2.065 3.865 1.991a7.4 7.4 0 0 0 2.581-.443c6.431-2.773 13.26-3.068 20.104-3.245a457 457 0 0 1 27.759.103c3.304.118 6.593.546 9.883.693 7.493.354 14.927 1.195 22.39 1.785 5.266.413 10.546.723 15.827 1.077 7.036.472 14.086.811 21.107 1.446 11.844 1.091 23.748 1.475 35.489 3.599 3.245.59 6.564.693 9.838 1.033 10.517 1.091 21.004 2.316 31.58 2.906a1077 1077 0 0 0 39.618 1.77c2.699.059 5.28.649 7.788 1.342 5.915 1.667 11.933 3.186 17.051 6.844a7.4 7.4 0 0 0 3.658 1.387q1.977.147 3.924.516 2.301.443 4.572-.162c2.552-.664 5.118-1.342 7.729-1.711 3.481-.502 6.829-1.46 10.192-2.449l-.015.044a8.4 8.4 0 0 0 4.764 2.021c1.534.088 3.083.088 4.587.31 3.319.487 6.534.103 9.735-.841 1.033-.31 2.139-.369 3.216-.516.192-.03.487.044.575.192.295.398.162.782-.221 1.151q-.634.649-1.268 1.431c1.563 1.047 3.009.074 4.454.103 1.254.015 2.508-.634 3.761.03-.811 1.21-2.139 1.431-3.378 1.785a5.3 5.3 0 0 0-2.817 1.549q-.546.649.03 1.151c1.062.944 2.36 1.195 3.673.988 2.375-.384 4.72-.974 7.08-1.416 2.139-.413 4.263-1.091 6.475-.516zm-61.213 76.139q.59.428.575-.192c0-.059-.265-.147-.413-.147-.059 0-.103.207-.162.324"/>
    <path fill="#00ffef" d="M402.675 27.361h2.832v.162l-2.847-.133zM6.121 40.695c-.369.044-.738.118-1.091.103-.147 0-.295-.192-.457-.295.369-.03.752-.103 1.121-.088.147 0 .28.192.428.295m437.19-5.944.605-.693q-.118.177-.251.295-.221.147-.472.236l.133.147m-16.388 57.437q.103.796.796.664c.074-.015.192-.384.133-.443q-.516-.546-1.047-.015zm11.239-12.479.059-.324-.251.162z"/>
    <path fill="#010c80" d="M100.595 106.067q-4.101 0-5.9-3.024t-1.799-8.334V78.514q-1.667 1.711-3.393 2.434t-3.879.738q-.634 0-1.018-.575t-.398-1.504q0-.974.457-1.534t1.239-.56q1.711 0 3.363-1.136 1.667-1.151 3.614-3.688V44.427q0-2.64.413-4.809t1.49-3.732q.885-1.327 2.272-2.153 1.387-.841 3.481-.841 3.806 0 5.856 3.407t2.05 9.661q0 14.883-9.115 25.857 3.216 1.077 5.516 4.587 1.652 1.077 3.407 1.077.634 0 1.018.59.384.575.384 1.563 0 .929-.457 1.49t-1.298.56h-.634q.782 2.434 1.195 5.34t.413 6.121q0 6.401-2.109 9.661-2.124 3.26-6.18 3.26M97.22 43.393V67.73q3.319-4.528 5.103-10.163t1.785-11.638q0-4.396-.9-6.682t-2.655-2.286q-3.319 0-3.319 6.431m0 33.468v17.848q0 3.658.841 5.502.826 1.859 2.773 1.859 1.814 0 2.788-2.375.974-2.36.974-6.903 0-7.714-2.095-12.39-1.608-.678-2.994-1.608t-2.272-1.947"/>
    <path fill="none" d="M50.843 9.071h25.459v73.16H50.843z"/>
    <path fill="#010c80" d="M107.911 81.686q-.634 0-1.018-.575t-.398-1.504q0-2.095 1.755-2.095 2.139 0 3.82-1.785t2.684-4.853 1.003-6.829q0-.885-.088-1.608t-.251-1.224q-.443-.428-.959-1.401t-.87-2.08q-.369-1.091-.369-1.785.575-.929 1.873-1.446 1.283-.516 2.847-.265.929 1.711 1.519 4.292 1.46-.044 3.953-.634 1.563-.339 2.508-.457t1.637-.133q2.64 0 4.145 1.977t1.504 5.34v7.862q0 2.684.708 3.85t2.272 1.165q.678 0 1.047.59.369.575.369 1.563 0 .782-.413 1.416t-1.342.634q-7.065 0-7.065-8.673v-7.567q0-2.198-.487-3.083-.487-.87-1.755-.87-.443 0-.974.088t-1.903.398q-2.389.487-3.614.575.044.782.044 1.563 0 5.266-1.504 9.219t-4.263 6.151-6.416 2.198"/>
    <path fill="none" d="M64.428 30.798H95.55V58.41H64.428z"/>
    <path fill="#010c80" d="M135.862 81.686q-.634 0-1.018-.575t-.398-1.504q0-2.095 1.755-2.095 1.416 0 2.876-.457t3.407-1.578q-1.903-3.319-1.903-7.803 0-3.024 1.121-5.34t3.127-3.658 4.528-1.342q2.153 0 3.806 1.003t2.581 2.758.929 4.042q0 3.127-1.829 5.708t-6.18 5.605q1.563 1.121 4.204 1.121.678 0 1.077.59.398.575.398 1.563 0 .929-.443 1.46t-1.268.531q-2.345 0-4.396-.782t-3.407-2.153q-4.691 2.921-8.983 2.921m8.983-14.44q0 3.85 1.357 6.151 3.171-2.198 4.705-4.292t1.534-3.997q0-1.755-.856-2.758t-2.36-1.003q-1.903 0-3.142 1.711t-1.239 4.189"/>
    <path fill="none" d="M84.222 33.453h22.243v24.382H84.222z"/>
    <path fill="#010c80" d="M157.427 81.686q-.634 0-1.018-.575t-.398-1.504q0-2.095 1.755-2.095 1.563 0 3.466-1.932t4.44-6.21l5.221-8.82q-.088-.678-.088-1.46 0-2.434.9-3.614t1.49-1.416q.826-.192 1.785.03t1.726.708 1.077 1.165q-.192.87-.738 2.095t-1.711 3.275q.339.531.87 1.077t1.327 1.165l3.702 3.024q1.991 1.608 2.994 3.348t1.003 3.879q0 2.581-1.46 4.587.251.531.251 1.268 0 .929-.457 1.49t-1.283.56q-.782 0-1.504-.088t-1.608-.251q-1.313.339-2.773.339-1.711 0-3.407-.516t-3.569-1.623q-.088-2.581 1.947-3.806 2.684 1.755 5.074 1.755 2.05 0 3.26-1.091 1.224-1.106 1.224-2.803 0-2.153-2.331-3.997l-3.702-2.921q-.974-.782-1.755-1.608l-4.882 8.245q-2.684 4.543-5.148 6.46t-5.635 1.917"/>
    <path fill="none" d="M97.084 30.636h29.22v27.789h-29.22z"/>
    <path fill="#010c80" d="M187.03 81.686q-.634 0-1.033-.575-.384-.575-.384-1.504 0-.974.457-1.534t1.239-.56q2.153 0 4.115-1.932t4.41-6.46V43.013q0-4.882 2.065-7.508 2.08-2.64 6.033-2.581 3.614.059 5.635 2.744t2.021 6.977q0 3.466-1.268 7.714-1.268 4.233-3.363 8.142.487-.044 1.033-.044 3.658 0 5.826 2.581t2.168 6.918v4.189q0 2.832.708 4.101t2.375 1.268q.782 0 1.121.62.339.605.339 1.534t-.457 1.49-1.283.56q-3.51 0-5.384-2.272t-1.873-6.416v-5.162q0-2.493-1.091-3.879-1.106-1.387-3.097-1.387-1.947 0-3.51 1.283-1.563 1.298-2.493 3.54t-.974 5.162v8.437q-.487.147-1.077.251-.59.088-1.121.088-1.121 0-2.286-.339v-3.997q-1.991 2.581-4.071 3.628-2.065 1.047-4.75 1.047m13.142-38.733V61.79q2.198-3.363 3.776-6.785 1.593-3.407 2.434-6.608t.856-5.826q0-2.729-.9-4.174t-2.611-1.446q-3.555 0-3.555 6.003"/>
    <path fill="none" d="M115.448 13.29h34.913v48.778h-34.913z"/>
    <path fill="#010c80" d="M248.582 106.067q-4.101 0-5.9-3.024-1.814-3.024-1.814-8.334V78.514q-1.652 1.711-3.378 2.434-1.74.738-3.879.738-.634 0-1.033-.575-.384-.575-.384-1.504 0-.974.457-1.534t1.239-.56q1.711 0 3.363-1.136 1.652-1.151 3.599-3.688V44.427q0-2.64.413-4.809t1.49-3.732q.885-1.327 2.272-2.153 1.387-.841 3.481-.841 3.806 0 5.856 3.407t2.05 9.661q0 14.883-9.115 25.857 3.216 1.077 5.502 4.587 1.667 1.077 3.407 1.077.634 0 1.033.59.384.575.384 1.563 0 .929-.457 1.49t-1.283.56h-.634q.782 2.434 1.195 5.34t.413 6.121q0 6.401-2.124 9.661-2.109 3.26-6.165 3.26m-3.363-62.673V67.73q3.319-4.528 5.103-10.163t1.785-11.638q0-4.396-.9-6.682t-2.655-2.286q-3.319 0-3.319 6.431m0 33.468v17.848q0 3.658.841 5.502.826 1.859 2.773 1.859 1.799 0 2.773-2.375.974-2.36.974-6.903 0-7.714-2.095-12.39-1.608-.678-2.994-1.608t-2.272-1.947"/>
    <path fill="none" d="M147.515 9.071h25.459v73.16h-25.459z"/>
    <path fill="#010c80" d="M256.237 77.496q1.608 0 3.142-1.534 1.549-1.534 2.611-4.115-.192-1.165-.192-2.389 0-3.51 1.504-6.239 1.519-2.744 4.115-4.322 2.611-1.593 5.871-1.593t5.856 1.593 4.071 4.322 1.49 6.239-1.49 6.298-4.042 4.366q-2.567 1.578-5.885 1.578-2.98 0-5.384-1.283t-3.968-3.525q-3.024 4.823-8.054 4.823-.634 0-1.018-.575t-.398-1.504q0-2.095 1.755-2.095m17.021 0q3.127 0 5-2.198t1.873-5.856q0-1.799-.531-3.319-2.921-.103-5.28-1.165-2.375-1.077-3.732-2.921-1.947.826-3.068 2.803t-1.121 4.705q0 3.555 1.873 5.753t5 2.198"/>
    <path fill="none" d="M161.232 33.453h30.237v24.382h-30.237z"/>
    <path fill="#010c80" d="M287.02 77.496q1.608 0 3.142-1.534t2.611-4.115q-.192-1.165-.192-2.389 0-3.51 1.519-6.239 1.504-2.744 4.115-4.322 2.611-1.593 5.871-1.593t5.856 1.593 4.071 4.322 1.49 6.239-1.49 6.298-4.042 4.366Q307.404 81.7 304.1 81.7q-2.98 0-5.384-1.283-2.419-1.283-3.983-3.525-3.024 4.823-8.054 4.823-.634 0-1.018-.575t-.398-1.504q0-2.095 1.755-2.095m17.021 0q3.127 0 5-2.198t1.873-5.856q0-1.799-.546-3.319-2.921-.103-5.28-1.165-2.375-1.077-3.732-2.921-1.947.826-3.068 2.803t-1.121 4.705q0 3.555 1.873 5.753t5 2.198"/>
    <path fill="none" d="M181.337 33.453h30.237v24.382h-30.237z"/>
    <path fill="#010c80" d="M317.789 77.496q1.667 0 3.245-1.623 1.593-1.637 2.655-4.425-.044-.678-.044-1.357 0-3.702 1.46-6.579t3.968-4.543 5.738-1.667q1.711 0 3.363.664 1.667.664 2.788 1.785V40.046q.929-.339 2.242-.339 1.121 0 2.198.339v32.435q0 2.684.708 3.85t2.272 1.165q.678 0 1.047.59.369.575.369 1.563 0 .782-.413 1.416t-1.342.634q-4.631 0-6.239-3.806-1.416 1.799-3.407 2.803t-4.44 1.003q-2.832 0-5-1.239t-3.54-3.437q-3.024 4.676-7.95 4.676-.634 0-1.018-.575t-.384-1.504q0-2.095 1.755-2.095m10.384-7.404q0 3.466 1.593 5.443 1.578 1.977 4.366 1.977 3.068 0 4.941-2.095t1.873-5.516v-5.457q-.974-1.327-2.493-2.124t-3.127-.796q-2.095 0-3.702 1.121t-2.537 3.053-.929 4.41"/>
    <path fill="none" d="M200.836 18.91h33.748v41.993h-33.748z"/>
    <path fill="#010c80" d="M348.026 81.686q-.634 0-1.018-.575t-.398-1.504q0-2.095 1.755-2.095 1.563 0 3.466-1.932t4.44-6.21l5.221-8.82q-.088-.678-.088-1.46 0-2.434.9-3.614t1.49-1.416q.841-.192 1.785.03t1.726.708 1.077 1.165q-.192.87-.738 2.095t-1.711 3.275q.339.531.885 1.077t1.313 1.165l3.702 3.024q2.006 1.608 3.009 3.348t1.003 3.879q0 2.581-1.46 4.587.251.531.251 1.268 0 .929-.457 1.49t-1.283.56q-.782 0-1.519-.088t-1.608-.251q-1.327.339-2.788.339-1.711 0-3.407-.516t-3.555-1.623q-.103-2.581 1.947-3.806 2.684 1.755 5.074 1.755 2.05 0 3.26-1.091 1.224-1.106 1.224-2.803 0-2.153-2.345-3.997l-3.702-2.921q-.974-.782-1.755-1.608l-4.882 8.245q-2.684 4.543-5.148 6.46t-5.635 1.917"/>
    <path fill="none" d="M221.589 30.636h29.22v27.789h-29.22z"/>
  </svg>
